# xmcd
#
# Track frame offsets:
#	150
#	21467
#	59771
#	77997
#	104307
#	131664
#	167200
#	191783
#	213732
#	233058
#	259082
#	289463
#	310892
#
# Disc length: 4544 seconds
#
# Revision: 3
# Processed by: cddbd v1.5.2PL0 Copyright (c) Steve Scherf et al.
# Submitted via: audiograbber 1.83.01
#
DISCID=cf11be0d
DTITLE=—борник - Time Blues   Vol.15
DYEAR=2006
DGENRE=Blues
TTITLE0=Wolf Mail - 100 Yeras
TTITLE1=Mick Martin and The Blues Rockers - Working Man Blues
TTITLE2=Wailin Walker - It Takes Time
TTITLE3=Lucky Peterson - Little Red Rooster
TTITLE4=Mick Taylor - Shatter Red
TTITLE5=Heavy Blues Chevey - The Walk
TTITLE6=Eugene Hideadeway Bridges - Walk The Back Streets
TTITLE7=The Buzzard Blues Band - The Hardest Thing
TTITLE8=Mojo Blues Band and Danna Gillespie - Night Tight Woman
TTITLE9=Howling Iguanas - When Life Has Its Way
TTITLE10=Steve Johnson - Worried Blues
TTITLE11=Sonny Landreth - A world Away
TTITLE12=Jerry Waddel - Thinking About You
EXTD=YEAR: 2006
EXTT0=
EXTT1=
EXTT2=
EXTT3=
EXTT4=
EXTT5=
EXTT6=
EXTT7=
EXTT8=
EXTT9=
EXTT10=
EXTT11=
EXTT12=
PLAYORDER=
